<?xml version="1.0" standalone="no"?>
<!DOCTYPE svg PUBLIC "-//W3C//DTD SVG 20010904//EN"
 "http://www.w3.org/TR/2001/REC-SVG-20010904/DTD/svg10.dtd">
<svg version="1.0" xmlns="http://www.w3.org/2000/svg"
 width="713.000000pt" height="934.000000pt" viewBox="0 0 713.000000 934.000000"
 preserveAspectRatio="xMidYMid meet">

<g transform="translate(0.000000,934.000000) scale(0.100000,-0.100000)"
fill="#000000" stroke="none">
<path d="M205 9068 c-3 -7 -4 -1977 -3 -4378 l3 -4365 3188 -3 3187 -2 0 2973
0 2973 78 54 c159 111 310 247 420 379 l52 62 0 91 0 91 -35 33 c-44 42 -103
58 -177 50 -78 -8 -109 -22 -209 -98 -175 -135 -347 -194 -728 -254 -81 -12
-109 -13 -126 -4 -17 9 -36 9 -81 0 -87 -18 -376 -14 -466 6 -40 9 -100 20
-133 25 -62 8 -386 95 -560 149 -55 17 -156 43 -225 57 -115 25 -144 27 -370
27 -197 1 -268 -3 -363 -18 l-117 -20 -28 21 c-15 11 -58 64 -97 118 -164 230
-316 370 -500 461 -180 89 -340 115 -480 79 -163 -43 -283 -171 -315 -336 -14
-69 -14 -278 0 -348 14 -74 11 -86 -7 -26 -20 67 -29 342 -14 416 57 272 307
411 611 338 245 -58 472 -227 676 -503 121 -163 122 -165 157 -171 18 -4 71 1
118 10 131 25 338 35 489 24 162 -11 325 -43 525 -103 83 -24 237 -68 343 -96
254 -68 248 -73 182 147 -136 450 -353 883 -572 1141 -45 53 -58 76 -50 84 18
18 94 -34 153 -104 196 -234 455 -791 554 -1192 36 -144 34 -141 101 -154 75
-16 126 -15 148 1 40 29 39 129 -5 392 -63 381 -209 763 -389 1019 -35 50 -39
61 -28 73 12 11 20 9 54 -15 34 -25 56 -61 150 -248 61 -120 129 -271 151
-334 76 -215 137 -494 164 -749 10 -86 17 -119 31 -133 20 -20 78 -24 110 -7
20 11 20 17 14 109 -11 162 -44 463 -62 567 -9 53 -40 180 -70 282 -54 184
-62 225 -46 235 5 3 23 -9 40 -27 24 -25 40 -64 76 -186 60 -200 80 -315 115
-663 17 -177 33 -293 41 -303 16 -19 58 -18 185 3 l100 18 3 982 2 982 -2780
0 -2780 0 0 -2087 0 -2088 30 37 c42 50 120 87 200 93 l65 5 -67 -18 c-90 -24
-141 -61 -189 -134 -32 -50 -39 -70 -39 -110 0 -43 4 -52 40 -88 35 -35 37
-38 12 -29 -14 6 -32 15 -39 21 -11 8 -13 -118 -12 -673 1 -376 4 -670 6 -654
31 227 94 488 198 820 97 310 115 454 70 563 -15 35 -14 62 3 62 4 0 19 -30
31 -66 21 -59 23 -77 18 -182 -5 -123 -10 -142 -111 -466 -64 -204 -110 -384
-142 -551 -36 -192 -45 -477 -19 -622 43 -243 163 -455 344 -610 280 -239 656
-403 926 -403 106 0 153 -29 139 -85 l-6 -25 -22 33 c-24 35 -59 45 -162 46
-79 1 -212 28 -316 62 -135 45 -261 109 -416 212 -303 200 -466 427 -526 733
-12 61 -14 -44 -15 -843 l-1 -913 2780 0 2780 0 0 2633 0 2632 112 70 c61 39
118 71 125 73 11 3 13 -501 13 -2827 l0 -2831 -3025 0 -3025 0 0 4210 0 4210
3023 -2 3022 -3 3 -1052 c1 -647 6 -1053 11 -1053 6 0 42 12 80 26 l71 26 0
1114 0 1114 -3185 0 c-2539 0 -3187 -3 -3190 -12z m2302 -1718 c69 -31 145
-92 196 -157 24 -32 90 -141 147 -243 217 -393 257 -450 388 -562 62 -52 57
-76 -33 -151 -172 -145 -376 -215 -473 -164 -56 30 -171 147 -226 231 -30 45
-81 135 -114 201 -155 313 -187 465 -142 685 31 153 40 173 79 186 41 13 113
3 178 -26z m839 -422 c52 -79 81 -151 91 -229 22 -182 -168 112 -202 312 l-8
44 34 -26 c19 -14 57 -60 85 -101z m3602 -44 c4 -26 -148 -182 -255 -261 -173
-129 -382 -210 -623 -243 -121 -17 -384 -14 -536 5 -178 22 -164 14 -164 95
l0 68 43 -5 c55 -7 97 -31 117 -68 26 -48 62 -45 97 7 37 56 65 60 108 18 27
-26 39 -31 59 -26 14 3 26 11 26 16 0 5 19 20 43 34 31 18 73 29 162 41 345
46 573 123 740 251 63 48 153 96 170 91 6 -2 11 -12 13 -23z m-2693 -75 c39
-5 232 -52 430 -105 470 -125 525 -141 547 -160 18 -17 23 -59 12 -101 -8 -27
18 -33 -314 63 -339 97 -480 128 -480 106 0 -4 59 -39 132 -77 211 -112 297
-209 314 -356 7 -62 -14 -166 -47 -232 -94 -186 -311 -316 -584 -348 -282 -33
-583 92 -681 282 -23 44 -28 70 -32 146 -4 80 -1 105 21 175 70 222 213 351
457 412 153 39 131 46 -137 46 -270 0 -286 4 -291 61 -4 50 19 67 114 80 198
27 379 30 539 8z m-2108 -51 c-3 -8 -6 -5 -6 6 -1 11 2 17 5 13 3 -3 4 -12 1
-19z m162 -419 c1 -54 -21 -108 -84 -200 -131 -192 -185 -352 -185 -554 0
-121 16 -214 60 -345 51 -154 44 -178 -113 -382 -277 -358 -429 -828 -452
-1393 -8 -201 9 -659 30 -785 28 -169 69 -316 159 -575 50 -143 53 -155 32
-155 -8 0 -21 20 -29 48 -9 26 -38 112 -65 192 -59 170 -95 305 -123 467 -26
152 -42 627 -29 863 31 569 190 1023 493 1403 117 147 126 187 78 330 -51 151
-64 236 -58 387 8 202 53 336 172 510 76 111 94 153 96 220 1 43 3 49 9 30 4
-14 8 -41 9 -61z m4141 -19 c8 -5 12 -11 10 -13 -9 -8 -384 -243 -433 -272
-40 -23 -53 -26 -80 -18 -29 8 -32 12 -32 48 0 37 3 41 40 59 88 43 461 206
470 206 6 0 17 -4 25 -10z m-4015 -192 c12 -47 7 -65 -38 -158 -102 -211 -125
-425 -86 -791 15 -138 11 -152 -89 -311 -213 -336 -289 -510 -347 -794 -115
-563 -91 -1188 66 -1717 62 -208 172 -450 280 -617 71 -109 86 -167 52 -208
-27 -34 -63 -21 -121 43 -160 174 -323 533 -417 915 -47 194 -72 354 -90 577
-15 191 -15 194 10 418 25 220 60 439 91 560 77 304 208 569 412 830 110 142
124 212 73 363 -62 179 -74 307 -46 479 29 178 123 380 195 415 45 23 48 23
55 -4z m3502 -173 c51 -77 64 -107 91 -210 71 -270 105 -527 106 -795 1 -155
-2 -194 -17 -237 -20 -56 -41 -68 -51 -30 -3 12 -3 94 1 182 11 291 -37 658
-122 925 -72 231 -84 272 -71 259 2 -2 31 -44 63 -94z m-109 59 c15 -10 22
-25 22 -48 0 -35 -23 -56 -108 -100 -39 -20 -41 -19 -52 29 -12 52 5 92 49
115 44 24 60 24 89 4z m207 -114 c-15 -29 -35 -40 -35 -20 0 8 39 50 47 50 2
0 -3 -13 -12 -30z m-438 -32 c15 -14 23 -33 23 -55 0 -27 -6 -37 -32 -53 -63
-38 -88 -23 -88 57 0 22 8 38 26 52 33 26 42 26 71 -1z m125 -138 l10 -25 13
26 c8 15 21 29 30 33 13 4 12 1 -2 -22 -10 -15 -23 -31 -30 -37 -11 -8 -10
-32 2 -125 30 -227 46 -428 46 -600 0 -212 -17 -323 -58 -382 -33 -48 -38 -39
-23 39 31 164 23 428 -24 818 -13 105 -23 204 -23 220 1 17 -3 71 -7 120 l-8
90 32 -65 c18 -36 36 -76 42 -90z m-233 -47 c22 -111 41 -164 41 -117 0 12 8
28 18 37 18 16 18 15 14 -16 -2 -17 -10 -39 -17 -47 -9 -11 -14 -96 -18 -325
-7 -391 -44 -701 -103 -868 -28 -77 -45 -101 -83 -112 -21 -6 -23 -5 -16 11
21 49 68 230 85 329 40 225 45 317 45 778 0 246 2 447 5 447 3 0 16 -53 29
-117z m-91 -50 c-18 -19 -73 -63 -123 -96 -277 -190 -471 -488 -564 -870 l-32
-127 26 -81 c14 -44 25 -98 25 -119 0 -21 5 -42 10 -45 6 -4 8 -11 5 -16 -4
-5 -10 -76 -16 -158 -5 -83 -13 -161 -19 -175 -6 -17 -6 -35 1 -53 11 -30 67
-406 104 -707 27 -219 33 -438 14 -591 -23 -190 -111 -468 -202 -640 -73 -136
-202 -224 -342 -233 -164 -10 -290 67 -374 228 -52 99 -140 209 -221 275 -33
27 -67 59 -74 70 -24 37 -54 486 -36 540 6 19 13 35 15 35 2 0 40 -19 84 -42
108 -56 177 -62 256 -23 103 50 133 129 96 253 -56 188 -125 313 -241 438 -81
87 -90 105 -90 174 0 64 24 124 62 153 22 18 31 35 36 70 7 45 10 48 87 99
101 67 120 93 120 163 0 42 -8 69 -41 132 l-40 80 34 54 c19 30 53 74 77 99
24 25 68 83 99 128 132 196 278 366 413 484 165 143 762 606 795 617 18 5 44
11 58 13 23 3 25 0 28 -46 3 -44 0 -52 -30 -83z m-1401 -122 c54 -27 110 -92
119 -136 26 -141 -162 -279 -300 -221 -86 36 -155 137 -143 210 11 68 81 142
157 165 47 14 120 6 167 -18z m1148 -237 c-157 -179 -227 -321 -310 -621 l-36
-128 17 -275 c19 -316 24 -344 62 -364 36 -20 19 -20 -18 -1 -20 10 -32 27
-39 53 -6 20 -17 161 -26 312 l-16 275 45 156 c81 285 158 428 325 612 76 83
73 70 -4 -19z m-4186 -714 c187 -53 191 -231 22 -895 -116 -450 -115 -447
-116 -660 0 -232 16 -308 105 -490 135 -277 321 -439 710 -619 68 -31 110 -59
145 -93 49 -50 125 -165 125 -190 0 -9 -17 -13 -62 -13 -219 0 -625 193 -838
397 -107 102 -170 186 -230 308 -70 140 -91 229 -97 400 -7 173 2 224 127 735
132 540 183 827 161 905 -22 79 -83 145 -135 145 -20 0 -119 -93 -128 -120 -4
-13 -8 -12 -27 4 -32 29 -29 95 7 128 63 60 150 81 231 58z m4080 -747 c89
-49 214 -176 269 -275 89 -157 119 -297 76 -355 -27 -36 -93 -56 -154 -46
l-45 7 68 7 c85 7 117 33 124 100 6 57 -38 189 -98 296 -55 97 -180 225 -264
270 -33 18 -56 33 -51 33 5 0 39 -16 75 -37z m-1921 -19 c20 -8 71 -26 112
-40 166 -56 336 -167 455 -297 94 -102 196 -258 234 -358 30 -76 31 -87 20
-121 -21 -64 -41 -78 -113 -78 -60 0 -68 3 -123 44 -32 24 -151 138 -264 254
-170 173 -218 215 -269 241 -35 17 -78 31 -96 31 -71 0 -144 106 -129 187 8
47 48 117 77 138 28 19 49 19 96 -1z m1859 -76 c157 -101 299 -322 279 -432
-6 -33 -10 -36 -40 -36 -25 0 -61 18 -138 68 -109 73 -161 123 -185 181 -14
33 -53 224 -53 259 0 24 69 5 137 -40z m-28 -498 c-14 -85 14 -244 52 -299 6
-9 0 -3 -15 12 -14 15 -33 53 -42 85 -18 61 -24 198 -11 246 14 49 26 15 16
-44z m166 -462 c54 -109 70 -197 70 -393 0 -195 -17 -307 -71 -475 -56 -170
-194 -430 -229 -430 -23 0 -19 10 36 101 101 164 169 328 211 508 29 126 37
427 14 540 -20 95 -51 173 -101 245 l-36 51 36 -40 c20 -21 51 -70 70 -107z
m-220 -1407 c178 -14 291 -31 400 -60 100 -27 115 -35 97 -53 -10 -10 -100
-14 -400 -16 -372 -2 -388 -2 -419 18 -83 50 -4 135 117 126 30 -2 123 -9 205
-15z m-2848 -157 c34 -47 88 -84 186 -126 302 -130 766 -186 1597 -190 262 -1
365 2 473 15 76 9 146 21 155 26 27 15 50 44 54 71 4 25 4 25 13 -4 4 -16 4
-40 -1 -54 -17 -48 -51 -62 -189 -77 -219 -24 -367 -28 -747 -16 -701 21
-1040 64 -1316 167 -124 47 -169 73 -226 134 -42 45 -46 54 -46 99 0 73 14 98
20 36 3 -29 15 -63 27 -81z m3583 -17 c0 -14 -42 -47 -90 -70 -44 -22 -54 -22
-552 -25 -499 -3 -507 -3 -517 17 -11 20 -9 20 491 23 494 3 504 3 548 25 59
28 93 59 85 75 -4 7 3 2 14 -12 11 -14 21 -29 21 -33z m-1972 -32 c37 -31 55
-31 116 0 27 14 65 25 84 25 47 0 306 -47 367 -67 64 -20 165 -71 165 -82 0
-23 -102 -31 -438 -34 l-354 -2 -24 28 c-13 15 -24 39 -24 53 0 44 40 102 72
104 3 0 20 -11 36 -25z"/>
<path d="M4105 6566 c-169 -54 -289 -189 -317 -359 -44 -267 179 -527 453
-527 342 0 594 363 449 649 -56 111 -173 201 -306 235 -74 19 -222 20 -279 2z
m269 -110 c20 -23 36 -52 36 -64 0 -24 -53 -72 -80 -72 -26 0 -80 48 -80 72 0
20 66 108 81 108 4 0 24 -20 43 -44z m210 -418 c15 -85 -66 -192 -192 -251
-52 -24 -83 -32 -148 -35 -109 -6 -168 14 -223 73 -23 25 -41 48 -41 53 0 11
90 32 138 32 96 1 221 48 320 122 62 46 124 71 133 54 4 -6 9 -28 13 -48z"/>
<path d="M7097 8553 c13 -37 26 -70 29 -72 2 -2 4 28 4 67 l0 72 -29 0 -29 0
25 -67z"/>
</g>
</svg>
